<svg xmlns="http://www.w3.org/2000/svg" width="11" height="6.428" viewBox="0 0 11 6.428">
  <path id="Path_5177" data-name="Path 5177" d="M209.689,5.609a1.288,1.288,0,0,1-.424.7q-2.189,2.18-4.371,4.368a.939.939,0,0,1-.862.307.919.919,0,0,1-.581-1.46,1.629,1.629,0,0,1,.157-.176L207.356,5.6c.03-.03.064-.057.1-.093-.037-.039-.065-.07-.095-.1q-1.888-1.888-3.777-3.776a.948.948,0,0,1-.314-.829.917.917,0,0,1,.744-.787.591.591,0,0,0,.06-.018h.215a1.311,1.311,0,0,1,.7.423q2.13,2.139,4.27,4.269a1.3,1.3,0,0,1,.424.7Z" transform="translate(11 -203.26) rotate(90)" fill="#757575"/>
</svg>
